<?xml version="1.0" encoding="UTF-8"?>
<svg xmlns="http://www.w3.org/2000/svg" xmlns:xlink="http://www.w3.org/1999/xlink" width="24px" height="24px" viewBox="0 0 24 24" version="1.1">
<g id="surface1">
<path style=" stroke:none;fill-rule:nonzero;fill:rgb(0%,0%,0%);fill-opacity:1;" d="M 11.085938 13.664062 C 11.183594 13.761719 11.34375 13.757812 11.4375 13.65625 C 11.53125 13.5625 11.53125 13.40625 11.4375 13.3125 L 9.664062 11.535156 L 11.535156 9.664062 L 13.3125 11.4375 C 13.410156 11.535156 13.566406 11.53125 13.664062 11.433594 C 13.757812 11.335938 13.757812 11.183594 13.664062 11.085938 L 11.886719 9.308594 L 13.25 7.945312 L 11.480469 6.179688 C 10.089844 4.785156 7.855469 4.707031 6.371094 6.003906 L 5.828125 5.445312 C 4.648438 4.230469 3.03125 3.542969 1.335938 3.539062 L 0.5 3.539062 L 0.5 4.039062 L 1.335938 4.039062 C 2.894531 4.042969 4.382812 4.675781 5.46875 5.792969 L 6.015625 6.359375 C 4.710938 7.84375 4.78125 10.085938 6.179688 11.480469 L 7.945312 13.25 L 9.308594 11.886719 Z M 6.53125 11.128906 C 5.261719 9.859375 5.261719 7.800781 6.53125 6.53125 C 7.800781 5.261719 9.859375 5.261719 11.128906 6.53125 L 12.542969 7.945312 L 7.945312 12.542969 Z M 6.53125 11.128906 "/>
<path style=" stroke:none;fill-rule:nonzero;fill:rgb(0%,0%,0%);fill-opacity:1;" d="M 22.675781 20 C 21.183594 20.003906 19.75 19.421875 18.679688 18.382812 L 18.035156 17.761719 C 19.328125 16.277344 19.253906 14.042969 17.863281 12.648438 L 16.09375 10.878906 L 10.789062 16.183594 L 12.558594 17.953125 C 13.957031 19.351562 16.199219 19.421875 17.683594 18.113281 L 18.332031 18.742188 C 19.496094 19.871094 21.054688 20.503906 22.675781 20.5 L 23.5 20.5 L 23.5 20 Z M 12.910156 17.597656 L 11.496094 16.183594 L 16.09375 11.589844 L 17.507812 13.003906 C 18.785156 14.265625 18.796875 16.320312 17.535156 17.597656 C 16.269531 18.875 14.214844 18.886719 12.9375 17.625 C 12.929688 17.613281 12.921875 17.605469 12.910156 17.597656 Z M 12.910156 17.597656 "/>
</g>
</svg>
