<?xml version="1.0" encoding="UTF-8"?>
<svg xmlns="http://www.w3.org/2000/svg" xmlns:xlink="http://www.w3.org/1999/xlink" width="24px" height="24px" viewBox="0 0 24 24" version="1.1">
<g id="surface1">
<path style=" stroke:none;fill-rule:nonzero;fill:rgb(0%,0%,0%);fill-opacity:1;" d="M 11.476562 10.0625 C 11.050781 9.679688 10.507812 9.460938 9.9375 9.449219 C 9.492188 9.433594 9.066406 9.617188 8.765625 9.949219 C 8.15625 10.65625 8.378906 11.855469 9.261719 12.628906 C 9.683594 13.011719 10.230469 13.226562 10.800781 13.242188 C 11.246094 13.257812 11.671875 13.074219 11.972656 12.742188 C 12.582031 12.03125 12.359375 10.832031 11.476562 10.0625 Z M 11.59375 12.414062 C 11.390625 12.636719 11.101562 12.753906 10.800781 12.742188 C 10.351562 12.726562 9.925781 12.554688 9.59375 12.253906 C 8.925781 11.671875 8.722656 10.765625 9.144531 10.277344 C 9.351562 10.054688 9.640625 9.933594 9.9375 9.949219 C 10.386719 9.964844 10.816406 10.136719 11.148438 10.4375 C 11.8125 11.019531 12.015625 11.921875 11.59375 12.414062 Z M 11.59375 12.414062 "/>
<path style=" stroke:none;fill-rule:nonzero;fill:rgb(0%,0%,0%);fill-opacity:1;" d="M 13.390625 6.351562 C 13.230469 6.230469 13.03125 6.167969 12.828125 6.164062 C 12.582031 6.160156 12.347656 6.273438 12.203125 6.472656 C 11.960938 6.875 12.085938 7.394531 12.484375 7.644531 C 12.644531 7.761719 12.84375 7.828125 13.046875 7.828125 C 13.289062 7.835938 13.523438 7.71875 13.671875 7.519531 C 13.914062 7.121094 13.789062 6.597656 13.390625 6.351562 Z M 13.265625 7.230469 C 13.210938 7.296875 13.128906 7.332031 13.046875 7.328125 C 12.949219 7.328125 12.851562 7.292969 12.773438 7.238281 C 12.605469 7.144531 12.535156 6.9375 12.609375 6.761719 C 12.664062 6.695312 12.746094 6.660156 12.828125 6.664062 C 12.925781 6.664062 13.023438 6.699219 13.101562 6.757812 C 13.277344 6.882812 13.355469 7.101562 13.265625 7.230469 Z M 13.265625 7.230469 "/>
<path style=" stroke:none;fill-rule:nonzero;fill:rgb(0%,0%,0%);fill-opacity:1;" d="M 9.359375 15.507812 C 9.1875 15.367188 8.976562 15.289062 8.753906 15.289062 C 8.527344 15.285156 8.308594 15.382812 8.164062 15.5625 C 7.898438 15.945312 7.992188 16.472656 8.371094 16.746094 C 8.546875 16.882812 8.757812 16.960938 8.976562 16.964844 C 9.203125 16.96875 9.425781 16.867188 9.570312 16.691406 C 9.832031 16.304688 9.738281 15.78125 9.359375 15.507812 Z M 9.175781 16.378906 C 9.128906 16.4375 9.050781 16.46875 8.976562 16.464844 C 8.871094 16.460938 8.769531 16.421875 8.6875 16.355469 C 8.527344 16.25 8.46875 16.042969 8.554688 15.871094 C 8.605469 15.816406 8.679688 15.785156 8.753906 15.789062 C 8.859375 15.789062 8.960938 15.828125 9.042969 15.898438 C 9.207031 16 9.265625 16.210938 9.175781 16.378906 Z M 9.175781 16.378906 "/>
<path style=" stroke:none;fill-rule:nonzero;fill:rgb(0%,0%,0%);fill-opacity:1;" d="M 16.609375 8.230469 L 16.691406 8.152344 L 16.550781 6.074219 L 12.984375 3.484375 L 10.789062 3.898438 L 10.734375 3.953125 C 9.515625 5.167969 8.546875 6.613281 7.882812 8.199219 C 7.460938 9.199219 7.121094 10.226562 6.871094 11.28125 C 6.5625 12.65625 6.027344 13.972656 5.289062 15.171875 L 5.246094 15.242188 L 5.445312 17.183594 L 9.167969 20.507812 L 10.914062 20.097656 L 10.96875 20.019531 C 11.308594 19.523438 11.574219 18.984375 11.769531 18.414062 C 12.109375 17.445312 12.390625 16.453125 12.617188 15.453125 C 12.980469 13.976562 13.292969 12.703125 14.3125 11.035156 C 14.96875 10.015625 15.738281 9.074219 16.609375 8.230469 Z M 12.132812 15.335938 C 11.90625 16.320312 11.628906 17.292969 11.296875 18.25 C 11.128906 18.746094 10.898438 19.214844 10.613281 19.65625 L 9.304688 19.960938 L 5.925781 16.941406 L 5.761719 15.355469 C 6.503906 14.132812 7.042969 12.796875 7.359375 11.402344 C 7.601562 10.375 7.933594 9.367188 8.34375 8.390625 C 8.972656 6.886719 9.886719 5.519531 11.035156 4.359375 L 12.863281 4.015625 L 16.066406 6.34375 L 16.175781 7.957031 C 15.308594 8.808594 14.539062 9.753906 13.886719 10.773438 C 12.828125 12.507812 12.503906 13.816406 12.132812 15.335938 Z M 12.132812 15.335938 "/>
<path style=" stroke:none;fill-rule:nonzero;fill:rgb(0%,0%,0%);fill-opacity:1;" d="M 23.449219 16.015625 C 23.40625 15.921875 23.308594 15.863281 23.203125 15.871094 C 22.386719 15.921875 21.652344 15.335938 20.972656 14.734375 C 20.414062 14.230469 19.902344 13.675781 19.449219 13.074219 C 18.960938 12.453125 18.609375 12.003906 17.816406 11.757812 C 16.847656 11.457031 15.800781 11.871094 15.015625 12.332031 C 15.128906 12.125 15.246094 11.914062 15.382812 11.691406 C 16.867188 9.265625 19.933594 6.984375 19.933594 6.984375 L 12.070312 1.269531 C 9.839844 2.726562 8.066406 4.785156 6.960938 7.207031 C 6.84375 6.726562 6.601562 6.285156 6.261719 5.929688 C 5.765625 5.445312 5.289062 5.382812 4.6875 5.300781 C 4.105469 5.238281 3.53125 5.109375 2.980469 4.925781 C 2.421875 4.734375 1.640625 4.410156 1.335938 3.769531 C 1.277344 3.644531 1.128906 3.59375 1.003906 3.652344 C 0.957031 3.671875 0.917969 3.710938 0.890625 3.757812 C 0.460938 4.539062 0.28125 5.789062 0.730469 6.519531 C 1.03125 6.933594 1.453125 7.238281 1.9375 7.394531 C 1.9375 7.398438 1.9375 7.398438 1.9375 7.398438 C 1.703125 7.683594 1.636719 8.066406 1.75 8.417969 C 1.890625 8.867188 2.382812 9.316406 3.195312 9.445312 C 3.195312 9.445312 3.199219 9.445312 3.199219 9.449219 C 3.199219 9.449219 3.195312 9.449219 3.195312 9.449219 C 3.140625 9.554688 3.109375 9.675781 3.109375 9.796875 C 3.113281 10 3.207031 10.1875 3.367188 10.3125 C 3.816406 10.683594 4.613281 10.628906 4.984375 10.578125 C 5.117188 10.820312 5.308594 11.027344 5.539062 11.179688 L 5.59375 11.222656 C 5.296875 12.464844 4.789062 13.652344 4.09375 14.730469 C 3.710938 15.355469 3.195312 15.890625 2.578125 16.296875 L 9.746094 22.695312 C 9.746094 22.695312 11.863281 21.925781 12.953125 18.824219 C 13.289062 17.863281 13.574219 16.882812 13.804688 15.886719 C 13.847656 15.898438 13.890625 15.898438 13.933594 15.882812 L 14.003906 15.859375 C 14.226562 16.28125 14.75 17.171875 15.25 17.402344 C 15.453125 17.515625 15.703125 17.515625 15.90625 17.402344 C 16.042969 17.324219 16.152344 17.210938 16.226562 17.070312 C 16.226562 17.070312 16.226562 17.070312 16.230469 17.070312 C 16.914062 18.042969 17.621094 18.242188 18.085938 18.242188 C 18.140625 18.242188 18.199219 18.238281 18.257812 18.230469 C 18.515625 18.207031 18.753906 18.082031 18.917969 17.878906 C 19.058594 17.691406 19.148438 17.476562 19.183594 17.246094 C 19.582031 17.578125 20.214844 18.007812 20.835938 18.035156 C 21.863281 18.085938 22.9375 17.15625 23.433594 16.25 C 23.476562 16.179688 23.484375 16.09375 23.449219 16.015625 Z M 20.859375 17.535156 C 20.0625 17.503906 19.144531 16.53125 19.136719 16.519531 C 19.042969 16.417969 18.886719 16.414062 18.785156 16.507812 C 18.726562 16.5625 18.699219 16.640625 18.703125 16.71875 C 18.738281 17.011719 18.675781 17.308594 18.527344 17.566406 C 18.449219 17.664062 18.328125 17.726562 18.203125 17.734375 C 17.550781 17.804688 16.898438 17.3125 16.363281 16.347656 C 16.296875 16.226562 16.144531 16.183594 16.023438 16.25 C 15.953125 16.289062 15.90625 16.355469 15.898438 16.4375 C 15.859375 16.753906 15.753906 16.917969 15.664062 16.964844 C 15.644531 16.976562 15.585938 17.007812 15.460938 16.949219 C 15.113281 16.785156 14.589844 15.933594 14.34375 15.433594 C 14.285156 15.3125 14.136719 15.261719 14.011719 15.320312 C 14.011719 15.320312 13.984375 15.332031 13.9375 15.351562 C 14.011719 15.042969 14.089844 14.746094 14.175781 14.453125 C 14.222656 14.285156 14.125 14.109375 13.957031 14.0625 C 13.925781 14.054688 13.898438 14.050781 13.867188 14.050781 C 13.796875 14.078125 13.738281 14.140625 13.71875 14.214844 C 13.601562 14.621094 13.5 15.035156 13.390625 15.476562 L 13.339844 15.6875 L 13.324219 15.746094 C 13.097656 16.730469 12.816406 17.703125 12.480469 18.660156 C 11.699219 20.882812 10.390625 21.800781 9.835938 22.101562 L 3.371094 16.332031 C 3.828125 15.949219 4.21875 15.492188 4.523438 14.984375 C 5.265625 13.824219 5.800781 12.550781 6.113281 11.210938 C 6.140625 11.117188 6.109375 11.015625 6.035156 10.953125 L 5.730469 10.703125 C 5.664062 10.644531 5.601562 10.582031 5.546875 10.511719 L 5.519531 10.480469 C 5.453125 10.390625 5.398438 10.296875 5.351562 10.199219 C 5.300781 10.09375 5.1875 10.03125 5.074219 10.054688 C 4.816406 10.105469 4.015625 10.195312 3.6875 9.925781 C 3.609375 9.859375 3.609375 9.8125 3.609375 9.792969 C 3.640625 9.640625 3.730469 9.507812 3.859375 9.421875 C 3.964844 9.335938 3.980469 9.175781 3.890625 9.070312 C 3.84375 9.015625 3.773438 8.980469 3.699219 8.980469 C 2.710938 8.980469 2.308594 8.515625 2.230469 8.265625 C 2.148438 7.96875 2.28125 7.652344 2.554688 7.507812 C 2.675781 7.441406 2.722656 7.289062 2.65625 7.167969 C 2.621094 7.105469 2.558594 7.0625 2.488281 7.046875 C 2.210938 6.980469 1.429688 6.71875 1.15625 6.261719 C 0.882812 5.8125 0.933594 5.027344 1.148438 4.402344 C 1.152344 4.402344 1.152344 4.402344 1.15625 4.402344 C 1.601562 4.9375 2.296875 5.222656 2.820312 5.398438 C 3.402344 5.59375 4.007812 5.730469 4.621094 5.796875 C 5.191406 5.875 5.53125 5.921875 5.910156 6.289062 C 6.328125 6.757812 6.566406 7.363281 6.574219 7.992188 C 6.574219 8.023438 6.578125 8.050781 6.589844 8.078125 C 6.289062 8.828125 6.082031 9.460938 5.925781 10.003906 C 5.890625 10.136719 5.976562 10.269531 6.113281 10.300781 C 6.238281 10.328125 6.359375 10.261719 6.402344 10.140625 C 6.625 9.382812 6.890625 8.640625 7.195312 7.910156 C 8.210938 5.484375 9.898438 3.390625 12.050781 1.875 L 19.101562 7 C 18.140625 7.78125 16.109375 9.546875 14.953125 11.429688 C 14.707031 11.832031 14.484375 12.25 14.289062 12.679688 C 14.210938 12.851562 14.136719 13.019531 14.074219 13.1875 C 14.042969 13.253906 14.074219 13.332031 14.140625 13.359375 C 14.175781 13.375 14.210938 13.375 14.246094 13.359375 L 14.578125 13.222656 L 14.628906 13.199219 C 15.308594 12.6875 16.585938 11.902344 17.667969 12.238281 C 18.3125 12.4375 18.59375 12.792969 19.054688 13.386719 C 19.527344 14.011719 20.058594 14.585938 20.640625 15.109375 C 21.253906 15.652344 21.960938 16.226562 22.777344 16.351562 C 22.777344 16.351562 22.78125 16.351562 22.777344 16.351562 C 22.777344 16.355469 22.777344 16.355469 22.777344 16.355469 C 22.300781 17.003906 21.539062 17.570312 20.859375 17.535156 Z M 20.859375 17.535156 "/>
</g>
</svg>
