<?xml version="1.0" encoding="UTF-8"?>
<svg xmlns="http://www.w3.org/2000/svg" xmlns:xlink="http://www.w3.org/1999/xlink" width="24px" height="24px" viewBox="0 0 24 24" version="1.1">
<g id="surface1">
<path style=" stroke:none;fill-rule:nonzero;fill:rgb(0%,0%,0%);fill-opacity:1;" d="M 20.351562 5.476562 L 20.253906 5.476562 C 20.238281 4.726562 19.878906 4.027344 19.277344 3.578125 L 19.261719 3.566406 L 19.246094 3.558594 C 18.847656 3.296875 18.382812 3.152344 17.90625 3.152344 C 17.65625 3.148438 17.40625 3.1875 17.164062 3.261719 C 16.691406 2.347656 15.746094 1.777344 14.714844 1.78125 C 14.507812 1.785156 14.300781 1.804688 14.097656 1.847656 L 14.082031 1.847656 L 14.066406 1.851562 C 12.816406 2.140625 11.925781 3.25 11.917969 4.535156 C 11.917969 4.546875 11.917969 4.578125 11.917969 4.578125 C 11.808594 4.558594 11.695312 4.550781 11.582031 4.550781 C 10.847656 4.554688 10.15625 4.902344 9.722656 5.496094 C 9.207031 6.191406 9.105469 7.109375 9.453125 7.902344 L 9.460938 7.914062 L 9.464844 7.929688 C 9.851562 8.6875 10.601562 9.1875 11.449219 9.246094 L 11.472656 9.25 L 20.324219 9.25 C 21.351562 9.238281 22.199219 8.429688 22.25 7.398438 L 22.25 7.378906 C 22.25 6.328125 21.398438 5.476562 20.351562 5.476562 Z M 20.320312 8.75 L 11.492188 8.75 C 10.820312 8.703125 10.222656 8.304688 9.914062 7.707031 C 9.636719 7.078125 9.714844 6.351562 10.121094 5.796875 C 10.464844 5.332031 11.003906 5.054688 11.582031 5.054688 C 11.683594 5.054688 11.789062 5.058594 11.890625 5.074219 L 12.414062 5.171875 C 12.414062 5.171875 12.417969 5.171875 12.417969 5.167969 L 12.417969 4.574219 C 12.40625 3.507812 13.136719 2.578125 14.175781 2.339844 C 14.351562 2.304688 14.53125 2.285156 14.714844 2.277344 C 15.574219 2.273438 16.359375 2.761719 16.742188 3.53125 L 16.917969 3.886719 C 16.917969 3.886719 16.921875 3.886719 16.921875 3.886719 L 17.308594 3.738281 C 17.5 3.679688 17.703125 3.648438 17.902344 3.648438 C 18.285156 3.652344 18.660156 3.765625 18.976562 3.976562 C 19.460938 4.335938 19.746094 4.898438 19.753906 5.5 L 19.753906 5.976562 L 20.347656 5.976562 C 21.121094 5.976562 21.75 6.601562 21.75 7.375 C 21.75 7.375 21.75 7.378906 21.75 7.378906 C 21.714844 8.144531 21.085938 8.746094 20.320312 8.75 Z M 20.320312 8.75 "/>
<path style=" stroke:none;fill-rule:nonzero;fill:rgb(0%,0%,0%);fill-opacity:1;" d="M 12.5 11.25 L 3 11.25 C 2.449219 11.25 2 11.699219 2 12.25 L 2 18.5 C 2 19.050781 2.449219 19.5 3 19.5 L 6.75 19.5 L 6.75 21 L 5.25 21 L 5.25 21.5 L 10.25 21.5 L 10.25 21 L 8.75 21 L 8.75 19.5 L 12.5 19.5 C 13.050781 19.5 13.5 19.050781 13.5 18.5 L 13.5 12.25 C 13.5 11.699219 13.050781 11.25 12.5 11.25 Z M 8.25 21 L 7.25 21 L 7.25 19.5 L 8.25 19.5 Z M 13 18.5 C 13 18.777344 12.777344 19 12.5 19 L 3 19 C 2.722656 19 2.5 18.777344 2.5 18.5 L 2.5 12.25 C 2.5 11.972656 2.722656 11.75 3 11.75 L 12.5 11.75 C 12.777344 11.75 13 11.972656 13 12.25 Z M 13 18.5 "/>
<path style=" stroke:none;fill-rule:nonzero;fill:rgb(0%,0%,0%);fill-opacity:1;" d="M 3 18.5 L 12.5 18.5 L 12.5 12.25 L 3 12.25 Z M 3.5 12.75 L 12 12.75 L 12 18 L 3.5 18 Z M 3.5 12.75 "/>
<path style=" stroke:none;fill-rule:nonzero;fill:rgb(0%,0%,0%);fill-opacity:1;" d="M 4.738281 10.148438 C 4.59375 9.824219 4.511719 9.472656 4.5 9.117188 C 4.488281 7.546875 5.75 6.265625 7.316406 6.25 C 7.335938 6.25 7.351562 6.25 7.367188 6.25 L 7.390625 6.25 C 7.394531 6.25 7.394531 6.253906 7.390625 6.253906 L 6.074219 7.574219 L 6.425781 7.925781 L 8.101562 6.25 L 6.425781 4.574219 L 6.074219 4.925781 L 6.914062 5.765625 C 6.914062 5.769531 6.914062 5.769531 6.910156 5.769531 C 5.117188 5.96875 3.820312 7.585938 4.019531 9.378906 C 4.058594 9.714844 4.144531 10.042969 4.28125 10.351562 Z M 4.738281 10.148438 "/>
<path style=" stroke:none;fill-rule:nonzero;fill:rgb(0%,0%,0%);fill-opacity:1;" d="M 18.011719 10.601562 C 18.15625 10.925781 18.238281 11.277344 18.25 11.632812 C 18.261719 13.203125 17 14.484375 15.433594 14.5 C 15.414062 14.5 15.398438 14.5 15.382812 14.5 L 15.359375 14.5 C 15.355469 14.5 15.355469 14.496094 15.359375 14.496094 L 16.675781 13.175781 L 16.324219 12.824219 L 14.648438 14.5 L 16.324219 16.175781 L 16.675781 15.824219 L 15.835938 14.984375 C 15.835938 14.980469 15.835938 14.980469 15.839844 14.980469 C 17.632812 14.78125 18.929688 13.164062 18.730469 11.371094 C 18.691406 11.035156 18.605469 10.707031 18.46875 10.398438 Z M 18.011719 10.601562 "/>
</g>
</svg>
