<?xml version="1.0" encoding="UTF-8"?>
<svg xmlns="http://www.w3.org/2000/svg" xmlns:xlink="http://www.w3.org/1999/xlink" width="24px" height="24px" viewBox="0 0 24 24" version="1.1">
<g id="surface1">
<path style=" stroke:none;fill-rule:nonzero;fill:rgb(0%,0%,0%);fill-opacity:1;" d="M 20.15625 9.472656 C 19.957031 8.25 19.285156 7.152344 18.28125 6.421875 C 17.242188 5.695312 15.949219 5.421875 14.707031 5.671875 C 13.726562 4.167969 12.050781 3.253906 10.253906 3.25 C 9.839844 3.25 9.429688 3.296875 9.03125 3.394531 C 6.902344 3.949219 5.308594 5.722656 4.980469 7.898438 C 3.570312 7.945312 2.257812 8.625 1.40625 9.746094 C 0.40625 11.152344 0.226562 12.976562 0.929688 14.550781 C 1.648438 16.097656 3.152344 17.121094 4.855469 17.226562 L 6.679688 17.226562 L 9.757812 17.234375 L 9.757812 16.734375 L 6.679688 16.726562 L 4.871094 16.726562 C 3.363281 16.628906 2.027344 15.714844 1.386719 14.347656 C 0.761719 12.9375 0.921875 11.304688 1.808594 10.042969 C 2.574219 9.046875 3.742188 8.445312 4.996094 8.398438 L 5.414062 8.382812 L 5.476562 7.972656 C 5.765625 5.996094 7.214844 4.382812 9.148438 3.882812 C 9.511719 3.792969 9.882812 3.75 10.253906 3.75 C 11.882812 3.75 13.402344 4.578125 14.285156 5.945312 L 14.472656 6.226562 L 14.804688 6.160156 C 15.910156 5.941406 17.0625 6.179688 17.988281 6.828125 C 18.882812 7.480469 19.484375 8.460938 19.664062 9.554688 L 19.722656 9.914062 L 20.082031 9.964844 C 21.945312 10.230469 23.246094 11.953125 22.980469 13.816406 C 22.75 15.460938 21.367188 16.703125 19.707031 16.75 L 17.054688 16.75 L 14.257812 16.742188 L 14.257812 17.242188 L 17.054688 17.25 L 19.707031 17.25 C 21.863281 17.195312 23.570312 15.398438 23.511719 13.242188 C 23.464844 11.335938 22.046875 9.742188 20.15625 9.472656 Z M 20.15625 9.472656 "/>
<path style=" stroke:none;fill-rule:nonzero;fill:rgb(0%,0%,0%);fill-opacity:1;" d="M 12.25 20.75 L 12.25 10.859375 C 12.25 10.859375 12.25 10.855469 12.253906 10.855469 C 12.253906 10.855469 12.253906 10.855469 12.253906 10.859375 L 15.574219 14.175781 L 15.925781 13.824219 L 12 9.898438 L 8.074219 13.824219 L 8.425781 14.175781 L 11.746094 10.859375 C 11.746094 10.855469 11.75 10.855469 11.75 10.859375 L 11.75 20.75 Z M 12.25 20.75 "/>
</g>
</svg>
