<svg width="96" height="96" xmlns="http://www.w3.org/2000/svg" xmlns:xlink="http://www.w3.org/1999/xlink" xml:space="preserve" overflow="hidden"><g transform="translate(-802 -182)"><path d="M846.343 236.657C846.74 237.041 847.373 237.03 847.757 236.632 848.131 236.245 848.131 235.63 847.757 235.243L840.65 228.136 848.136 220.651 855.243 227.757C855.64 228.141 856.273 228.13 856.657 227.732 857.031 227.345 857.031 226.73 856.657 226.343L849.55 219.237 855 213.787 847.929 206.716C842.36 201.136 833.417 200.833 827.483 206.022L825.317 203.783C820.599 198.925 814.119 196.178 807.347 196.163L804 196.163 804 198.163 807.347 198.163C813.577 198.177 819.538 200.705 823.879 205.174L826.066 207.435C820.845 213.369 821.13 222.338 826.716 227.929L833.787 235 839.236 229.55ZM828.13 226.515C823.053 221.438 823.053 213.207 828.13 208.13 833.207 203.053 841.438 203.053 846.515 208.13L852.172 213.787 833.787 232.172Z"/><path d="M892.707 262C886.738 262.012 881 259.691 876.718 255.533L874.141 253.041C879.32 247.102 879.016 238.168 873.447 232.594L866.376 225.523 845.163 246.737 852.234 253.808C857.821 259.405 866.799 259.689 872.729 254.457L875.329 256.971C879.984 261.49 886.219 264.012 892.707 264L896 264 896 262ZM853.648 252.393 847.991 246.737 866.376 228.352 872.033 234.009C877.137 239.058 877.182 247.289 872.133 252.393 867.084 257.498 858.853 257.543 853.749 252.494 853.715 252.46 853.681 252.427 853.648 252.393Z"/></g></svg>