<svg width="96" height="96" xmlns="http://www.w3.org/2000/svg" xmlns:xlink="http://www.w3.org/1999/xlink" xml:space="preserve" overflow="hidden"><g transform="translate(-1085 -174)"><path d="M1130.9 214.244C1129.21 212.718 1127.03 211.849 1124.75 211.793 1122.97 211.737 1121.26 212.469 1120.07 213.793 1117.63 216.628 1118.51 221.429 1122.05 224.515 1123.74 226.042 1125.92 226.912 1128.2 226.969 1129.98 227.025 1131.69 226.293 1132.89 224.969 1135.33 222.131 1134.44 217.33 1130.9 214.244ZM1131.37 223.66C1130.56 224.541 1129.4 225.02 1128.2 224.969 1126.41 224.909 1124.7 224.215 1123.37 223.01 1120.71 220.691 1119.89 217.069 1121.58 215.102 1122.4 214.221 1123.56 213.742 1124.75 213.793 1126.55 213.853 1128.26 214.547 1129.59 215.751 1132.25 218.071 1133.07 221.693 1131.37 223.66Z"/><path d="M1138.57 199.4C1137.92 198.924 1137.13 198.665 1136.32 198.658 1135.33 198.634 1134.39 199.094 1133.81 199.89 1132.85 201.496 1133.34 203.577 1134.93 204.573 1135.58 205.048 1136.37 205.307 1137.18 205.314 1138.16 205.339 1139.1 204.878 1139.69 204.082 1140.65 202.477 1140.16 200.394 1138.57 199.4ZM1138.06 202.923C1137.84 203.184 1137.51 203.329 1137.18 203.314 1136.79 203.307 1136.41 203.178 1136.09 202.947 1135.42 202.576 1135.14 201.755 1135.44 201.047 1135.65 200.786 1135.98 200.641 1136.32 200.656 1136.71 200.664 1137.09 200.792 1137.4 201.024 1138.11 201.527 1138.42 202.414 1138.06 202.918Z"/><path d="M1122.44 236.035C1121.75 235.475 1120.9 235.164 1120.02 235.154 1119.11 235.134 1118.23 235.537 1117.65 236.245 1116.59 237.788 1116.97 239.895 1118.49 240.978 1119.18 241.538 1120.03 241.849 1120.91 241.859 1121.82 241.879 1122.7 241.476 1123.28 240.768 1124.33 239.225 1123.96 237.119 1122.44 236.035ZM1121.71 239.523C1121.51 239.749 1121.21 239.872 1120.91 239.859 1120.49 239.849 1120.08 239.694 1119.75 239.421 1119.11 239.007 1118.88 238.175 1119.22 237.49 1119.42 237.264 1119.72 237.141 1120.02 237.154 1120.44 237.163 1120.85 237.316 1121.17 237.587 1121.83 237.996 1122.06 238.836 1121.71 239.523Z"/><path d="M1151.44 206.926 1151.76 206.604 1151.2 198.3 1136.94 187.936 1128.16 189.6 1127.94 189.819C1123.06 194.677 1119.18 200.447 1116.53 206.8 1114.85 210.79 1113.49 214.911 1112.48 219.121 1111.25 224.626 1109.11 229.887 1106.15 234.69L1105.98 234.972 1106.78 242.736 1121.67 256.028 1128.66 254.39 1128.88 254.072C1130.23 252.087 1131.3 249.932 1132.08 247.663 1133.43 243.776 1134.56 239.817 1135.47 235.806 1136.92 229.906 1138.17 224.806 1142.25 218.147 1144.87 214.064 1147.95 210.299 1151.44 206.926ZM1133.53 235.339C1132.63 239.284 1131.52 243.177 1130.19 247L1130.19 247C1129.51 248.979 1128.59 250.867 1127.45 252.619L1122.22 253.842 1108.7 241.76 1108.04 235.416C1111.02 230.533 1113.17 225.195 1114.43 219.616 1115.41 215.499 1116.74 211.468 1118.38 207.566 1120.89 201.548 1124.55 196.074 1129.14 191.445L1136.46 190.062 1149.27 199.369 1149.7 205.834C1146.23 209.229 1143.16 213.009 1140.55 217.1 1136.31 224.026 1135.02 229.264 1133.53 235.339Z"/><path d="M1178.8 238.069C1178.63 237.686 1178.24 237.45 1177.82 237.478 1174.54 237.694 1171.61 235.351 1168.89 232.93 1166.65 230.924 1164.61 228.703 1162.8 226.3 1160.85 223.811 1159.44 222.013 1156.26 221.031 1152.39 219.831 1148.2 221.477 1145.07 223.331 1145.51 222.502 1145.99 221.651 1146.53 220.766 1152.47 211.066 1164.73 201.935 1164.73 201.935L1133.28 179.084C1124.36 184.908 1117.27 193.139 1112.84 202.825 1112.37 200.908 1111.4 199.148 1110.04 197.72 1108.06 195.782 1106.15 195.529 1103.75 195.208 1101.42 194.946 1099.13 194.44 1096.92 193.698 1094.68 192.943 1091.56 191.643 1090.35 189.082 1090.11 188.583 1089.52 188.369 1089.02 188.605 1088.83 188.694 1088.67 188.842 1088.57 189.026 1086.84 192.156 1086.13 197.15 1087.92 200.084 1089.12 201.734 1090.81 202.96 1092.75 203.584 1092.75 203.587 1092.75 203.593 1092.75 203.597 1092.75 203.597 1092.75 203.598 1092.75 203.598 1091.82 204.738 1091.54 206.272 1092 207.665 1092.57 209.465 1094.53 211.265 1097.78 211.784 1097.78 211.784 1097.79 211.788 1097.79 211.794 1097.79 211.795 1097.78 211.797 1097.78 211.798 1097.56 212.225 1097.44 212.701 1097.44 213.184 1097.45 213.994 1097.83 214.754 1098.47 215.245 1100.27 216.738 1103.46 216.514 1104.93 216.31 1105.47 217.275 1106.23 218.102 1107.15 218.726L1107.38 218.889C1106.18 223.867 1104.15 228.608 1101.38 232.917 1099.85 235.428 1097.78 237.57 1095.32 239.191L1123.99 264.781C1123.99 264.781 1132.46 261.7 1136.81 249.3 1138.16 245.447 1139.3 241.524 1140.22 237.547 1140.39 237.59 1140.57 237.587 1140.74 237.536L1141.01 237.444C1141.91 239.12 1144 242.68 1146 243.616 1146.82 244.056 1147.81 244.056 1148.63 243.616 1149.17 243.301 1149.61 242.837 1149.9 242.28 1149.9 242.276 1149.91 242.274 1149.91 242.275 1149.91 242.276 1149.91 242.278 1149.92 242.28 1152.66 246.175 1155.49 246.964 1157.34 246.964 1157.57 246.964 1157.8 246.952 1158.03 246.927 1159.06 246.834 1160.02 246.323 1160.67 245.512 1161.23 244.773 1161.59 243.906 1161.73 242.99 1161.73 242.981 1161.74 242.978 1161.74 242.984 1163.33 244.314 1165.86 246.036 1168.35 246.143 1172.45 246.343 1176.75 242.625 1178.74 239.001 1178.91 238.716 1178.93 238.372 1178.8 238.069ZM1168.44 244.145C1165.25 244.009 1161.58 240.121 1161.55 240.082 1161.17 239.678 1160.54 239.656 1160.14 240.033 1159.9 240.249 1159.79 240.56 1159.82 240.874 1159.95 242.05 1159.7 243.237 1159.11 244.261 1158.79 244.658 1158.32 244.904 1157.81 244.938 1155.21 245.22 1152.6 243.25 1150.46 239.384 1150.19 238.901 1149.58 238.727 1149.1 238.994 1148.82 239.149 1148.63 239.429 1148.59 239.746 1148.44 241.014 1148.01 241.673 1147.66 241.866 1147.58 241.908 1147.35 242.038 1146.85 241.804 1145.45 241.148 1143.36 237.735 1142.38 235.737 1142.14 235.246 1141.55 235.041 1141.05 235.276 1141.05 235.276 1140.93 235.33 1140.75 235.406 1141.05 234.173 1141.36 232.984 1141.7 231.811 1141.89 231.14 1141.5 230.44 1140.83 230.249 1140.71 230.216 1140.59 230.199 1140.47 230.2L1140.47 230.2C1140.18 230.314 1139.96 230.555 1139.87 230.854 1139.4 232.488 1139 234.141 1138.57 235.9L1138.36 236.757 1138.3 236.982C1137.39 240.927 1136.26 244.818 1134.92 248.64 1131.8 257.524 1126.56 261.2 1124.34 262.408L1098.48 239.323C1100.31 237.792 1101.87 235.975 1103.1 233.942 1106.06 229.302 1108.21 224.197 1109.46 218.842 1109.56 218.466 1109.43 218.068 1109.14 217.818L1107.92 216.81C1107.65 216.583 1107.4 216.324 1107.18 216.04L1107.08 215.921C1106.82 215.57 1106.59 215.195 1106.4 214.8 1106.21 214.368 1105.75 214.126 1105.29 214.22 1104.26 214.428 1101.06 214.777 1099.75 213.697 1099.44 213.441 1099.44 213.243 1099.44 213.168 1099.56 212.563 1099.92 212.033 1100.44 211.695 1100.86 211.34 1100.92 210.709 1100.56 210.286 1100.37 210.059 1100.09 209.929 1099.8 209.929L1099.79 209.929C1095.85 209.923 1094.24 208.062 1093.92 207.062 1093.59 205.873 1094.13 204.612 1095.22 204.035 1095.71 203.771 1095.89 203.163 1095.62 202.678 1095.48 202.426 1095.24 202.246 1094.96 202.182 1093.85 201.927 1090.72 200.869 1089.63 199.048 1088.53 197.248 1088.73 194.115 1089.6 191.615 1089.61 191.61 1089.61 191.609 1089.62 191.612 1089.62 191.613 1089.62 191.614 1089.62 191.615 1091.41 193.748 1094.18 194.888 1096.28 195.594 1098.61 196.379 1101.03 196.916 1103.48 197.194 1105.76 197.494 1107.13 197.681 1108.64 199.154 1110.32 201.026 1111.27 203.453 1111.29 205.974 1111.29 206.09 1111.31 206.203 1111.36 206.311 1110.16 209.318 1109.33 211.839 1108.7 214.011 1108.57 214.55 1108.91 215.085 1109.45 215.206 1109.95 215.317 1110.44 215.042 1110.61 214.565 1111.5 211.537 1112.56 208.56 1113.78 205.648 1117.85 195.931 1124.59 187.562 1133.21 181.505L1161.41 202C1157.56 205.12 1149.44 212.187 1144.82 219.725 1143.83 221.335 1142.94 223.005 1142.16 224.725 1141.84 225.41 1141.55 226.081 1141.29 226.743 1141.17 227.014 1141.3 227.327 1141.57 227.443 1141.7 227.501 1141.85 227.501 1141.99 227.443L1143.32 226.897 1143.51 226.791C1146.23 224.749 1151.34 221.612 1155.67 222.951 1158.25 223.751 1159.37 225.177 1161.22 227.542 1163.11 230.04 1165.23 232.348 1167.56 234.433 1170.01 236.615 1172.84 238.904 1176.11 239.402 1176.11 239.403 1176.12 239.408 1176.11 239.413 1176.11 239.415 1176.11 239.416 1176.11 239.417 1174.2 242.021 1171.15 244.287 1168.44 244.145Z"/></g></svg>