<svg width="96" height="96" xmlns="http://www.w3.org/2000/svg" xmlns:xlink="http://www.w3.org/1999/xlink" xml:space="preserve" overflow="hidden"><g transform="translate(-519 -175)"><path d="M600.4 196.908 600.014 196.908C599.959 193.91 598.519 191.107 596.114 189.317L596.053 189.271 595.988 189.23C594.393 188.182 592.529 187.617 590.621 187.605 589.618 187.599 588.62 187.747 587.662 188.046 585.763 184.391 581.981 182.104 577.862 182.119 577.032 182.138 576.206 182.226 575.391 182.384L575.332 182.394 575.269 182.408C570.259 183.555 566.697 188 566.67 193.14 566.67 193.194 566.67 193.307 566.67 193.307 566.228 193.231 565.779 193.198 565.331 193.207 562.39 193.213 559.627 194.617 557.887 196.988 555.828 199.77 555.419 203.443 556.814 206.61L556.837 206.663 556.863 206.716C558.401 209.744 561.413 211.746 564.8 211.992L564.886 212 600.291 212C604.414 211.957 607.792 208.712 608 204.594L608 204.554 608 204.514C608 200.315 604.599 196.911 600.4 196.908ZM600.275 210 564.975 210C562.284 209.808 559.888 208.226 558.654 205.826 557.544 203.316 557.862 200.403 559.489 198.192 560.854 196.328 563.023 195.222 565.333 195.211 565.742 195.212 566.151 195.24 566.556 195.296L568.656 195.686C568.661 195.687 568.667 195.684 568.668 195.678 568.668 195.678 568.668 195.677 568.668 195.676L568.668 193.3C568.622 189.036 571.55 185.315 575.705 184.355 576.413 184.217 577.131 184.137 577.852 184.117 581.29 184.1 584.437 186.044 585.962 189.126L586.674 190.549C586.677 190.552 586.683 190.552 586.686 190.549L588.228 189.956C589 189.712 589.805 189.591 590.614 189.598 592.142 189.611 593.633 190.067 594.907 190.91 596.836 192.343 597.984 194.597 598.009 197L598.009 198.9C598.009 198.906 598.013 198.91 598.019 198.91L600.394 198.91C603.487 198.907 605.997 201.411 606 204.504 606 204.507 606 204.511 606 204.514 605.853 207.574 603.338 209.984 600.275 210Z"/><path d="M569 220 531 220C528.791 220 527 221.791 527 224L527 249C527 251.209 528.791 253 531 253L546 253 546 259 540 259 540 261 560 261 560 259 554 259 554 253 569 253C571.209 253 573 251.209 573 249L573 224C573 221.791 571.209 220 569 220ZM552 259 548 259 548 253 552 253ZM571 249C571 250.105 570.105 251 569 251L531 251C529.895 251 529 250.105 529 249L529 224C529 222.895 529.895 222 531 222L569 222C570.105 222 571 222.895 571 224Z"/><path d="M531 249 569 249 569 224 531 224ZM533 226 567 226 567 247 533 247Z"/><path d="M537.958 215.592C537.375 214.292 537.052 212.89 537.007 211.466 536.951 205.189 541.994 200.056 548.27 200 548.337 199.999 548.405 199.999 548.472 200L548.562 200C548.575 200 548.578 200.008 548.569 200.017L543.293 205.293 544.707 206.707 551.414 200 544.707 193.293 543.293 194.707 546.651 198.065C546.659 198.073 546.651 198.081 546.645 198.082 539.464 198.876 534.286 205.341 535.079 212.522 535.227 213.864 535.583 215.175 536.132 216.408Z"/><path d="M591.042 217.408C591.625 218.708 591.948 220.11 591.993 221.534 592.049 227.811 587.006 232.944 580.73 233 580.663 233.001 580.595 233.001 580.528 233L580.438 233C580.425 233 580.422 232.992 580.431 232.983L585.707 227.707 584.293 226.293 577.586 233 584.293 239.707 585.707 238.293 582.349 234.935C582.341 234.927 582.349 234.919 582.355 234.918 589.536 234.124 594.714 227.659 593.921 220.478 593.773 219.136 593.417 217.825 592.868 216.592Z"/></g></svg>