<svg width="96" height="96" xmlns="http://www.w3.org/2000/svg" xmlns:xlink="http://www.w3.org/1999/xlink" xml:space="preserve" overflow="hidden"><g transform="translate(-231 -174)"><path d="M311.624 211.891C310.828 206.995 308.133 202.611 304.124 199.691 299.967 196.779 294.8 195.695 289.824 196.691 285.9 190.666 279.206 187.023 272.016 187 270.367 187 268.725 187.195 267.122 187.582 258.603 189.798 252.229 196.883 250.922 205.588 245.287 205.785 240.038 208.502 236.622 212.988 232.629 218.603 231.905 225.911 234.72 232.2 237.587 238.383 243.617 242.492 250.42 242.9L257.72 242.9 270.026 242.93 270.026 240.93 257.721 240.9 250.482 240.9C244.447 240.516 239.103 236.866 236.548 231.385 234.043 225.752 234.682 219.216 238.232 214.176 241.294 210.192 245.971 207.778 250.992 207.588L252.653 207.529 252.899 205.885C254.067 197.977 259.853 191.535 267.591 189.529 269.04 189.178 270.525 189.001 272.016 189 278.534 189.003 284.606 192.308 288.148 197.779L288.888 198.912 290.215 198.646C294.645 197.76 299.244 198.72 302.949 201.305 306.524 203.923 308.93 207.84 309.649 212.212L309.884 213.651 311.326 213.867C318.783 214.917 323.978 221.813 322.928 229.271 322.001 235.851 316.466 240.805 309.824 241L299.224 241 288.024 240.973 288.024 242.973 299.224 243 309.824 243C318.456 242.778 325.274 235.6 325.052 226.968 324.856 219.339 319.18 212.966 311.624 211.891Z"/><path d="M280 257 280 217.438C280 217.432 280.005 217.428 280.01 217.428 280.013 217.428 280.015 217.429 280.017 217.431L293.293 230.707 294.707 229.293 279 213.586 263.293 229.293 264.707 230.707 277.983 217.431C277.987 217.427 277.993 217.427 277.997 217.431 277.999 217.433 278 217.435 278 217.438L278 257Z"/></g></svg>